<?xml version="1.0" standalone="no"?>
<!DOCTYPE svg PUBLIC "-//W3C//DTD SVG 20010904//EN"
 "http://www.w3.org/TR/2001/REC-SVG-20010904/DTD/svg10.dtd">
<svg version="1.0" xmlns="http://www.w3.org/2000/svg"
 width="53.000000pt" height="53.000000pt" viewBox="0 0 53.000000 53.000000"
 preserveAspectRatio="xMidYMid meet">

<g transform="translate(0.000000,53.000000) scale(0.100000,-0.100000)"
fill="#000000" stroke="none">
<path d="M132 478 c-15 -15 -16 -55 -2 -63 8 -5 7 -12 -2 -23 -11 -15 -11 -15
2 -6 8 6 27 14 41 18 34 8 44 32 24 62 -17 26 -44 31 -63 12z"/>
<path d="M332 478 c-28 -28 -7 -78 33 -78 12 0 27 -6 35 -12 12 -11 12 -10 3
2 -8 10 -9 21 -3 30 14 22 12 36 -6 54 -18 19 -45 21 -62 4z"/>
<path d="M243 443 c15 -2 37 -2 50 0 12 2 0 4 -28 4 -27 0 -38 -2 -22 -4z"/>
<path d="M230 372 c-61 -50 11 -135 74 -89 37 27 8 107 -39 107 -7 0 -23 -8
-35 -18z"/>
<path d="M86 321 c-3 -4 -19 -11 -35 -14 -50 -10 -53 -71 -3 -83 15 -4 34 -12
42 -18 13 -9 13 -9 2 6 -9 11 -10 18 -2 23 13 8 13 52 0 60 -8 5 -7 11 1 21 6
8 9 14 6 14 -3 0 -8 -4 -11 -9z"/>
<path d="M438 318 c9 -11 10 -18 2 -23 -5 -3 -10 -17 -10 -30 0 -13 5 -27 10
-30 8 -5 7 -12 -2 -23 -11 -15 -11 -15 2 -6 8 6 27 14 42 18 48 11 48 71 -1
82 -14 4 -33 12 -41 18 -13 9 -13 9 -2 -6z"/>
<path d="M180 233 l-35 -33 29 -24 c53 -44 128 -44 182 -1 l29 24 -32 32 c-26
27 -39 32 -84 33 -48 2 -57 -1 -89 -31z"/>
<path d="M128 138 c9 -11 10 -18 2 -23 -14 -8 -13 -48 2 -63 19 -19 46 -14 63
12 20 30 10 54 -24 62 -14 4 -33 12 -41 18 -13 9 -13 9 -2 -6z"/>
<path d="M395 140 c-3 -5 -16 -10 -29 -10 -42 0 -63 -53 -31 -80 36 -30 88 16
66 58 -7 13 -7 22 1 30 7 7 9 12 6 12 -4 0 -10 -4 -13 -10z"/>
<path d="M243 83 c15 -2 37 -2 50 0 12 2 0 4 -28 4 -27 0 -38 -2 -22 -4z"/>
</g>
</svg>
