<?xml version="1.0" standalone="no"?>
<!DOCTYPE svg PUBLIC "-//W3C//DTD SVG 20010904//EN"
 "http://www.w3.org/TR/2001/REC-SVG-20010904/DTD/svg10.dtd">
<svg version="1.0" xmlns="http://www.w3.org/2000/svg"
 width="64.000000pt" height="64.000000pt" viewBox="0 0 64.000000 64.000000"
 preserveAspectRatio="xMidYMid meet">

<g transform="translate(0.000000,64.000000) scale(0.100000,-0.100000)"
fill="#000000" stroke="none">
<path d="M95 608 c-3 -7 -4 -141 -3 -298 l3 -285 164 -3 165 -3 43 43 c33 33
43 49 43 75 0 18 -4 33 -10 33 -5 0 -10 -11 -10 -24 0 -21 -5 -25 -37 -28 -36
-3 -38 -5 -41 -41 l-3 -37 -150 0 -149 0 0 280 0 280 190 0 190 0 0 -64 0 -65
-52 -3 -53 -3 0 -115 0 -115 40 -3 c22 -2 48 -11 58 -19 15 -15 19 -15 35 0 9
8 35 17 57 19 l40 3 0 115 0 115 -52 3 -52 3 -3 72 -3 72 -203 3 c-158 2 -204
0 -207 -10z m500 -258 l0 -95 -35 -3 c-19 -2 -41 -8 -47 -14 -9 -7 -17 -7 -26
0 -6 6 -28 12 -47 14 l-35 3 -3 84 c-2 46 0 90 2 98 4 11 27 13 98 11 l93 -3
0 -95z m-125 -253 c0 -2 -9 -12 -20 -22 -19 -18 -20 -17 -20 3 0 15 6 22 20
22 11 0 20 -2 20 -3z"/>
<path d="M467 424 c-17 -17 -6 -35 19 -32 15 2 29 -2 31 -9 3 -7 -10 -13 -34
-15 -38 -3 -38 -3 -38 -48 l0 -45 55 0 55 0 3 34 c2 19 -1 44 -7 55 -5 12 -11
30 -13 41 -2 14 -12 21 -33 23 -17 2 -34 0 -38 -4z"/>
<path d="M240 560 c0 -6 27 -10 60 -10 33 0 60 4 60 10 0 6 -27 10 -60 10 -33
0 -60 -4 -60 -10z"/>
<path d="M140 510 c0 -5 7 -10 15 -10 8 0 15 5 15 10 0 6 -7 10 -15 10 -8 0
-15 -4 -15 -10z"/>
<path d="M190 510 c0 -6 52 -10 135 -10 83 0 135 4 135 10 0 6 -52 10 -135 10
-83 0 -135 -4 -135 -10z"/>
<path d="M140 450 c0 -5 7 -10 15 -10 8 0 15 5 15 10 0 6 -7 10 -15 10 -8 0
-15 -4 -15 -10z"/>
<path d="M190 450 c0 -6 33 -10 80 -10 47 0 80 4 80 10 0 6 -33 10 -80 10 -47
0 -80 -4 -80 -10z"/>
<path d="M140 390 c0 -5 7 -10 15 -10 8 0 15 5 15 10 0 6 -7 10 -15 10 -8 0
-15 -4 -15 -10z"/>
<path d="M190 390 c0 -6 33 -10 80 -10 47 0 80 4 80 10 0 6 -33 10 -80 10 -47
0 -80 -4 -80 -10z"/>
<path d="M140 330 c0 -5 7 -10 15 -10 8 0 15 5 15 10 0 6 -7 10 -15 10 -8 0
-15 -4 -15 -10z"/>
<path d="M190 330 c0 -6 33 -10 80 -10 47 0 80 4 80 10 0 6 -33 10 -80 10 -47
0 -80 -4 -80 -10z"/>
<path d="M140 270 c0 -5 7 -10 15 -10 8 0 15 5 15 10 0 6 -7 10 -15 10 -8 0
-15 -4 -15 -10z"/>
<path d="M190 270 c0 -6 33 -10 80 -10 47 0 80 4 80 10 0 6 -33 10 -80 10 -47
0 -80 -4 -80 -10z"/>
<path d="M140 210 c0 -5 7 -10 15 -10 8 0 15 5 15 10 0 6 -7 10 -15 10 -8 0
-15 -4 -15 -10z"/>
<path d="M190 210 c0 -6 33 -10 80 -10 47 0 80 4 80 10 0 6 -33 10 -80 10 -47
0 -80 -4 -80 -10z"/>
<path d="M140 150 c0 -5 7 -10 15 -10 8 0 15 5 15 10 0 6 -7 10 -15 10 -8 0
-15 -4 -15 -10z"/>
<path d="M190 150 c0 -6 52 -10 135 -10 83 0 135 4 135 10 0 6 -52 10 -135 10
-83 0 -135 -4 -135 -10z"/>
<path d="M140 90 c0 -5 7 -10 15 -10 8 0 15 5 15 10 0 6 -7 10 -15 10 -8 0
-15 -4 -15 -10z"/>
<path d="M190 90 c0 -6 38 -10 95 -10 57 0 95 4 95 10 0 6 -38 10 -95 10 -57
0 -95 -4 -95 -10z"/>
</g>
</svg>
